<svg width="59" height="13" viewBox="0 0 59 13" fill="none" xmlns="http://www.w3.org/2000/svg">
<circle cx="6.3324" cy="6.3324" r="6.3324" fill="#97F675"/>
<path d="M6.38159 6.43078C6.38159 6.08913 6.31429 5.75081 6.18355 5.43516C6.0528 5.11951 5.86116 4.83271 5.61957 4.59112C5.37798 4.34953 5.09118 4.15789 4.77553 4.02714C4.45988 3.8964 4.12156 3.8291 3.77991 3.8291C3.43825 3.8291 3.09994 3.8964 2.78428 4.02714C2.46863 4.15789 2.18183 4.34953 1.94024 4.59112C1.69865 4.83271 1.50701 5.11951 1.37626 5.43516C1.24552 5.75081 1.17822 6.08913 1.17822 6.43078L3.77991 6.43078H6.38159Z" fill="black"/>
<path d="M11.5847 6.43078C11.5847 6.77244 11.5174 7.11075 11.3867 7.42641C11.2559 7.74206 11.0643 8.02886 10.8227 8.27045C10.5811 8.51204 10.2943 8.70368 9.97865 8.83443C9.663 8.96517 9.32469 9.03247 8.98303 9.03247C8.64137 9.03247 8.30306 8.96517 7.98741 8.83443C7.67176 8.70368 7.38495 8.51204 7.14336 8.27045C6.90177 8.02886 6.71014 7.74206 6.57939 7.4264C6.44864 7.11075 6.38135 6.77244 6.38135 6.43078L8.98303 6.43078H11.5847Z" fill="black"/>
<path d="M20.3242 8.08594V9H17.2969V8.08594H20.3242ZM17.6797 3.3125V9H16.5078V3.3125H17.6797ZM19.9297 5.62891V6.51953H17.2969V5.62891H19.9297ZM20.3203 3.3125V4.23047H17.2969V3.3125H20.3203ZM23.2188 8.04688V6.16406C23.2188 6.02865 23.1966 5.91276 23.1523 5.81641C23.1081 5.71745 23.0391 5.64062 22.9453 5.58594C22.8542 5.53125 22.7357 5.50391 22.5898 5.50391C22.4648 5.50391 22.3568 5.52604 22.2656 5.57031C22.1745 5.61198 22.1042 5.67318 22.0547 5.75391C22.0052 5.83203 21.9805 5.92448 21.9805 6.03125H20.8555C20.8555 5.85156 20.8971 5.68099 20.9805 5.51953C21.0638 5.35807 21.1849 5.21615 21.3438 5.09375C21.5026 4.96875 21.6914 4.87109 21.9102 4.80078C22.1315 4.73047 22.3789 4.69531 22.6523 4.69531C22.9805 4.69531 23.2721 4.75 23.5273 4.85938C23.7826 4.96875 23.9831 5.13281 24.1289 5.35156C24.2773 5.57031 24.3516 5.84375 24.3516 6.17188V7.98047C24.3516 8.21224 24.3659 8.40234 24.3945 8.55078C24.4232 8.69661 24.4648 8.82422 24.5195 8.93359V9H23.3828C23.3281 8.88542 23.2865 8.74219 23.2578 8.57031C23.2318 8.39583 23.2188 8.22135 23.2188 8.04688ZM23.3672 6.42578L23.375 7.0625H22.7461C22.5977 7.0625 22.4688 7.07943 22.3594 7.11328C22.25 7.14714 22.1602 7.19531 22.0898 7.25781C22.0195 7.31771 21.9674 7.38802 21.9336 7.46875C21.9023 7.54948 21.8867 7.63802 21.8867 7.73438C21.8867 7.83073 21.9089 7.91797 21.9531 7.99609C21.9974 8.07161 22.0612 8.13151 22.1445 8.17578C22.2279 8.21745 22.3255 8.23828 22.4375 8.23828C22.6068 8.23828 22.7539 8.20443 22.8789 8.13672C23.0039 8.06901 23.1003 7.98568 23.168 7.88672C23.2383 7.78776 23.2747 7.69401 23.2773 7.60547L23.5742 8.08203C23.5326 8.1888 23.4753 8.29948 23.4023 8.41406C23.332 8.52865 23.2422 8.63672 23.1328 8.73828C23.0234 8.83724 22.8919 8.91927 22.7383 8.98438C22.5846 9.04688 22.4023 9.07812 22.1914 9.07812C21.9232 9.07812 21.6797 9.02474 21.4609 8.91797C21.2448 8.80859 21.0729 8.65885 20.9453 8.46875C20.8203 8.27604 20.7578 8.05729 20.7578 7.8125C20.7578 7.59115 20.7995 7.39453 20.8828 7.22266C20.9661 7.05078 21.0885 6.90625 21.25 6.78906C21.4141 6.66927 21.6185 6.57943 21.8633 6.51953C22.1081 6.45703 22.3919 6.42578 22.7148 6.42578H23.3672ZM27.5039 7.83203C27.5039 7.7513 27.4805 7.67839 27.4336 7.61328C27.3867 7.54818 27.2995 7.48828 27.1719 7.43359C27.0469 7.3763 26.8659 7.32422 26.6289 7.27734C26.4154 7.23047 26.2161 7.17188 26.0312 7.10156C25.849 7.02865 25.6901 6.94141 25.5547 6.83984C25.4219 6.73828 25.3177 6.61849 25.2422 6.48047C25.1667 6.33984 25.1289 6.17969 25.1289 6C25.1289 5.82292 25.1667 5.65625 25.2422 5.5C25.3203 5.34375 25.431 5.20573 25.5742 5.08594C25.7201 4.96354 25.8971 4.86849 26.1055 4.80078C26.3164 4.73047 26.5534 4.69531 26.8164 4.69531C27.1836 4.69531 27.4987 4.75391 27.7617 4.87109C28.0273 4.98828 28.2305 5.14974 28.3711 5.35547C28.5143 5.55859 28.5859 5.79036 28.5859 6.05078H27.4609C27.4609 5.94141 27.4375 5.84375 27.3906 5.75781C27.3464 5.66927 27.276 5.60026 27.1797 5.55078C27.0859 5.4987 26.9635 5.47266 26.8125 5.47266C26.6875 5.47266 26.5794 5.49479 26.4883 5.53906C26.3971 5.58073 26.3268 5.63802 26.2773 5.71094C26.2305 5.78125 26.207 5.85938 26.207 5.94531C26.207 6.01042 26.2201 6.06901 26.2461 6.12109C26.2747 6.17057 26.3203 6.21615 26.3828 6.25781C26.4453 6.29948 26.526 6.33854 26.625 6.375C26.7266 6.40885 26.8516 6.4401 27 6.46875C27.3047 6.53125 27.5768 6.61328 27.8164 6.71484C28.056 6.8138 28.2461 6.94922 28.3867 7.12109C28.5273 7.29036 28.5977 7.51302 28.5977 7.78906C28.5977 7.97656 28.556 8.14844 28.4727 8.30469C28.3893 8.46094 28.2695 8.59766 28.1133 8.71484C27.957 8.82943 27.7695 8.91927 27.5508 8.98438C27.3346 9.04688 27.0911 9.07812 26.8203 9.07812C26.4271 9.07812 26.0938 9.00781 25.8203 8.86719C25.5495 8.72656 25.3438 8.54818 25.2031 8.33203C25.0651 8.11328 24.9961 7.88932 24.9961 7.66016H26.0625C26.0677 7.8138 26.1068 7.9375 26.1797 8.03125C26.2552 8.125 26.3503 8.19271 26.4648 8.23438C26.582 8.27604 26.7083 8.29688 26.8438 8.29688C26.9896 8.29688 27.1107 8.27734 27.207 8.23828C27.3034 8.19661 27.3763 8.14193 27.4258 8.07422C27.4779 8.00391 27.5039 7.92318 27.5039 7.83203ZM30.582 8.52344L31.7031 4.77344H32.9102L31.2109 9.63672C31.1745 9.74349 31.125 9.85807 31.0625 9.98047C31.0026 10.1029 30.9206 10.2188 30.8164 10.3281C30.7148 10.4401 30.5859 10.5312 30.4297 10.6016C30.276 10.6719 30.0872 10.707 29.8633 10.707C29.7565 10.707 29.6693 10.7005 29.6016 10.6875C29.5339 10.6745 29.4531 10.6562 29.3594 10.6328V9.80859C29.388 9.80859 29.418 9.80859 29.4492 9.80859C29.4805 9.8112 29.5104 9.8125 29.5391 9.8125C29.6875 9.8125 29.8086 9.79557 29.9023 9.76172C29.9961 9.72786 30.0716 9.67578 30.1289 9.60547C30.1862 9.53776 30.2318 9.44922 30.2656 9.33984L30.582 8.52344ZM30.1133 4.77344L31.0312 7.83594L31.1914 9.02734L30.4258 9.10938L28.9062 4.77344H30.1133ZM34.6758 3.3125V9H33.5078V3.3125H34.6758ZM36.8047 5.67578V9H35.6797V4.77344H36.7344L36.8047 5.67578ZM36.6406 6.73828H36.3359C36.3359 6.42578 36.3763 6.14453 36.457 5.89453C36.5378 5.64193 36.651 5.42708 36.7969 5.25C36.9427 5.07031 37.1159 4.93359 37.3164 4.83984C37.5195 4.74349 37.7461 4.69531 37.9961 4.69531C38.194 4.69531 38.375 4.72396 38.5391 4.78125C38.7031 4.83854 38.8438 4.92969 38.9609 5.05469C39.0807 5.17969 39.1719 5.34505 39.2344 5.55078C39.2995 5.75651 39.332 6.00781 39.332 6.30469V9H38.1992V6.30078C38.1992 6.11328 38.1732 5.96745 38.1211 5.86328C38.069 5.75911 37.9922 5.6862 37.8906 5.64453C37.7917 5.60026 37.6693 5.57812 37.5234 5.57812C37.3724 5.57812 37.2409 5.60807 37.1289 5.66797C37.0195 5.72786 36.9284 5.8112 36.8555 5.91797C36.7852 6.02214 36.7318 6.14453 36.6953 6.28516C36.6589 6.42578 36.6406 6.57682 36.6406 6.73828ZM41.625 8.17969L42.5625 4.77344H43.7383L42.3125 9H41.6016L41.625 8.17969ZM40.9805 4.77344L41.9219 8.18359L41.9414 9H41.2266L39.8008 4.77344H40.9805ZM44 6.92969V6.84766C44 6.53776 44.0443 6.2526 44.1328 5.99219C44.2214 5.72917 44.3503 5.5013 44.5195 5.30859C44.6888 5.11589 44.8971 4.96615 45.1445 4.85938C45.3919 4.75 45.6758 4.69531 45.9961 4.69531C46.3164 4.69531 46.6016 4.75 46.8516 4.85938C47.1016 4.96615 47.3112 5.11589 47.4805 5.30859C47.6523 5.5013 47.7826 5.72917 47.8711 5.99219C47.9596 6.2526 48.0039 6.53776 48.0039 6.84766V6.92969C48.0039 7.23698 47.9596 7.52214 47.8711 7.78516C47.7826 8.04557 47.6523 8.27344 47.4805 8.46875C47.3112 8.66146 47.1029 8.8112 46.8555 8.91797C46.6081 9.02474 46.3242 9.07812 46.0039 9.07812C45.6836 9.07812 45.3984 9.02474 45.1484 8.91797C44.901 8.8112 44.6914 8.66146 44.5195 8.46875C44.3503 8.27344 44.2214 8.04557 44.1328 7.78516C44.0443 7.52214 44 7.23698 44 6.92969ZM45.125 6.84766V6.92969C45.125 7.10677 45.1406 7.27214 45.1719 7.42578C45.2031 7.57943 45.2526 7.71484 45.3203 7.83203C45.3906 7.94661 45.4818 8.03646 45.5938 8.10156C45.7057 8.16667 45.8424 8.19922 46.0039 8.19922C46.1602 8.19922 46.2943 8.16667 46.4062 8.10156C46.5182 8.03646 46.6081 7.94661 46.6758 7.83203C46.7435 7.71484 46.793 7.57943 46.8242 7.42578C46.8581 7.27214 46.875 7.10677 46.875 6.92969V6.84766C46.875 6.67578 46.8581 6.51432 46.8242 6.36328C46.793 6.20964 46.7422 6.07422 46.6719 5.95703C46.6042 5.83724 46.5143 5.74349 46.4023 5.67578C46.2904 5.60807 46.1549 5.57422 45.9961 5.57422C45.8372 5.57422 45.7018 5.60807 45.5898 5.67578C45.4805 5.74349 45.3906 5.83724 45.3203 5.95703C45.2526 6.07422 45.2031 6.20964 45.1719 6.36328C45.1406 6.51432 45.125 6.67578 45.125 6.84766ZM49.8828 4.77344V9H48.7539V4.77344H49.8828ZM48.6836 3.67188C48.6836 3.50781 48.7409 3.3724 48.8555 3.26562C48.9701 3.15885 49.1237 3.10547 49.3164 3.10547C49.5065 3.10547 49.6589 3.15885 49.7734 3.26562C49.8906 3.3724 49.9492 3.50781 49.9492 3.67188C49.9492 3.83594 49.8906 3.97135 49.7734 4.07812C49.6589 4.1849 49.5065 4.23828 49.3164 4.23828C49.1237 4.23828 48.9701 4.1849 48.8555 4.07812C48.7409 3.97135 48.6836 3.83594 48.6836 3.67188ZM52.5586 8.19922C52.6966 8.19922 52.819 8.17318 52.9258 8.12109C53.0326 8.06641 53.1159 7.99089 53.1758 7.89453C53.2383 7.79557 53.2708 7.67969 53.2734 7.54688H54.332C54.3294 7.84375 54.25 8.10807 54.0938 8.33984C53.9375 8.56901 53.7279 8.75 53.4648 8.88281C53.2018 9.01302 52.9076 9.07812 52.582 9.07812C52.2539 9.07812 51.9674 9.02344 51.7227 8.91406C51.4805 8.80469 51.2786 8.65365 51.1172 8.46094C50.9557 8.26562 50.8346 8.03906 50.7539 7.78125C50.6732 7.52083 50.6328 7.24219 50.6328 6.94531V6.83203C50.6328 6.53255 50.6732 6.25391 50.7539 5.99609C50.8346 5.73568 50.9557 5.50911 51.1172 5.31641C51.2786 5.12109 51.4805 4.96875 51.7227 4.85938C51.9648 4.75 52.2487 4.69531 52.5742 4.69531C52.9206 4.69531 53.224 4.76172 53.4844 4.89453C53.7474 5.02734 53.9531 5.21745 54.1016 5.46484C54.2526 5.70964 54.3294 6 54.332 6.33594H53.2734C53.2708 6.19531 53.2409 6.06771 53.1836 5.95312C53.1289 5.83854 53.0482 5.7474 52.9414 5.67969C52.8372 5.60938 52.7083 5.57422 52.5547 5.57422C52.3906 5.57422 52.2565 5.60938 52.1523 5.67969C52.0482 5.7474 51.9674 5.84115 51.9102 5.96094C51.8529 6.07812 51.8125 6.21224 51.7891 6.36328C51.7682 6.51172 51.7578 6.66797 51.7578 6.83203V6.94531C51.7578 7.10938 51.7682 7.26693 51.7891 7.41797C51.8099 7.56901 51.849 7.70312 51.9062 7.82031C51.9661 7.9375 52.0482 8.02995 52.1523 8.09766C52.2565 8.16536 52.3919 8.19922 52.5586 8.19922ZM56.9297 9.07812C56.6016 9.07812 56.3073 9.02604 56.0469 8.92188C55.7865 8.8151 55.5651 8.66797 55.3828 8.48047C55.2031 8.29297 55.0651 8.07552 54.9688 7.82812C54.8724 7.57812 54.8242 7.3125 54.8242 7.03125V6.875C54.8242 6.55469 54.8698 6.26172 54.9609 5.99609C55.0521 5.73047 55.1823 5.5 55.3516 5.30469C55.5234 5.10938 55.7318 4.95964 55.9766 4.85547C56.2214 4.7487 56.4974 4.69531 56.8047 4.69531C57.1042 4.69531 57.3698 4.74479 57.6016 4.84375C57.8333 4.94271 58.0273 5.08333 58.1836 5.26562C58.3424 5.44792 58.4622 5.66667 58.543 5.92188C58.6237 6.17448 58.6641 6.45573 58.6641 6.76562V7.23438H55.3047V6.48438H57.5586V6.39844C57.5586 6.24219 57.5299 6.10286 57.4727 5.98047C57.418 5.85547 57.3346 5.75651 57.2227 5.68359C57.1107 5.61068 56.9674 5.57422 56.793 5.57422C56.6445 5.57422 56.5169 5.60677 56.4102 5.67188C56.3034 5.73698 56.2161 5.82812 56.1484 5.94531C56.0833 6.0625 56.0339 6.20052 56 6.35938C55.9688 6.51562 55.9531 6.6875 55.9531 6.875V7.03125C55.9531 7.20052 55.9766 7.35677 56.0234 7.5C56.0729 7.64323 56.1419 7.76693 56.2305 7.87109C56.3216 7.97526 56.431 8.05599 56.5586 8.11328C56.6888 8.17057 56.8359 8.19922 57 8.19922C57.2031 8.19922 57.3919 8.16016 57.5664 8.08203C57.7435 8.0013 57.8958 7.88021 58.0234 7.71875L58.5703 8.3125C58.4818 8.4401 58.3607 8.5625 58.207 8.67969C58.056 8.79688 57.8737 8.89323 57.6602 8.96875C57.4466 9.04167 57.2031 9.07812 56.9297 9.07812Z" fill="black"/>
</svg>
